<svg
                className="h-[auto] absolute left-[0.18px] top-[2.41px] overflow-visible"
                // style=""
                width="24"
                height="20"
                viewBox="0 0 24 20"
                fill="none"
                xmlns="http://www.w3.org/2000/svg"
              >
                <path
                  d="M23.7055 7.2589L21.4648 7.2589L22.8574 0.409996L5.80862 0.409996L4.71516 5.59514H2.02754L1.31076 9.0458H1.76743L1.37135 10.8958L0.937664 10.8968L0.179687 14.3342H3.91921L3.86207 14.6001L3.86135 14.604C3.57766 15.9552 3.86564 17.2844 4.65171 18.2506C5.37576 19.1407 6.43564 19.6309 7.63635 19.6309H13.7616C14.8823 19.6309 16.026 19.1216 16.9821 18.1966C17.8472 17.3599 18.479 16.2598 18.7156 15.1768L18.8964 14.333H20.7317C21.6565 14.333 22.5131 13.6351 22.7246 12.7095L23.0097 11.3583C23.065 11.0867 23.0643 10.8132 23.0099 10.5571L23.7055 7.2589Z"
                  fill="white"
                />
                <path
                  d="M22.5807 10.3271L23.1293 7.72563L19.9304 7.72563C19.8982 7.72563 19.8658 7.72694 19.8333 7.72896L20.0294 6.81341H21.0783L22.2855 0.876728L6.18667 0.876728L5.0931 6.06187H2.40667L1.88369 8.57998H2.34393L1.74846 11.3617L1.31238 11.3627L0.759766 13.8684H4.14762L4.62703 11.6388C4.70643 11.8188 4.78488 11.9958 4.86179 12.1686L4.31893 14.6936L4.3175 14.7001C4.06286 15.9132 4.31643 17.1004 5.01322 17.9571C5.64691 18.736 6.5781 19.165 7.63536 19.165H13.7607C15.9168 19.165 17.8268 17.0526 18.258 15.0797L18.5177 13.8672L20.7308 13.8672C21.4314 13.8672 22.1068 13.3132 22.2683 12.6063L22.5511 11.2658C22.6196 10.9287 22.5775 10.5982 22.4356 10.3271L22.5804 10.3271H22.5807Z"
                  fill="#27251F"
                />
                <path
                  d="M7.29822 2.24228L6.623 5.44439H7.70834L7.38523 6.94722L8.07235 6.06025H11.1897L10.6672 8.57631L10.231 8.57817L9.6456 11.359H9.74363L11.1659 7.72401H11.6144L12.7727 2.24232H7.2982L7.29822 2.24228ZM15.1842 2.24228L14.0261 7.72397H14.4102L14.3859 9.2771L14.4532 8.956C14.6243 8.1549 15.4341 7.72397 16.1095 7.72397H18.4339L18.9222 5.44429H19.9592L20.6104 2.24219H15.1842L15.1842 2.24228ZM6.60451 12L6.18208 12.5426L5.65846 14.9788C5.34501 16.4717 6.14072 17.7959 7.63598 17.7959H13.7613C15.2566 17.7959 16.631 16.1106 16.9206 14.7865L17.1214 13.8484C17.0517 13.8594 16.9811 13.8653 16.9101 13.8653H12.7284L12.5796 14.5695H10.1682L10.317 13.8653H9.55398L9.55379 13.8666H6.20684L6.60454 12L6.60451 12Z"
                  fill="#971B2F"
                />
                <path
                  d="M12.7721 2.24228L10.2554 3.82527L9.77396 6.06016H11.1897L10.667 8.57623L10.2308 8.57808L9.6454 11.359H9.74342L11.1657 7.72393H11.6142L12.7721 2.24224L12.7721 2.24228ZM20.6097 2.24228L17.0413 3.82527L16.2033 7.72397H18.4332L18.9217 5.44429H19.9587L20.6097 2.24219V2.24228ZM17.1212 13.8484C17.0514 13.8594 16.9809 13.8653 16.91 13.8653H14.8833L14.7105 14.6691C14.5657 15.3313 13.8785 16.1739 13.1309 16.1739H8.88667C8.48977 16.1739 8.19281 15.9862 8.02377 15.6994L5.88672 16.812C6.22077 17.4063 6.82513 17.796 7.63558 17.796H13.7611C15.2563 17.796 16.6307 16.1107 16.9201 14.7865L17.1212 13.8485L17.1212 13.8484ZM10.3169 13.8653L8.09202 13.8666L7.89839 14.7653C7.82469 15.1154 7.87466 15.4459 8.02395 15.6993L10.1938 14.5696H10.1681L10.3169 13.8653H10.3169Z"
                  fill="#572932"
                />
                <path
                  d="M22.782 8.00631H19.9307C19.5607 8.00631 19.1498 8.16427 18.8684 8.44572L18.9611 8.00631H16.1095C15.5369 8.00631 14.8642 8.38297 14.7293 9.01433L14.481 10.1996C14.4013 10.5635 14.4719 10.9164 14.6747 11.1679C14.8006 11.3243 14.9701 11.4299 15.1651 11.4766H14.3024L14.1989 11.9657H14.0617L14.1238 8.00631L11.3586 8.00631L9.80347 11.9811H9.67788L9.75228 11.6413H9.29847L10.002 8.29834L10.4376 8.29644L10.8435 6.34254H8.21085L6.21716 8.9164L5.26204 6.34254L2.63692 6.34254L2.23085 8.29751H2.69335L1.9774 11.6419L1.5399 11.6429L1.11133 13.5859H3.92038L4.53585 10.7243C4.8049 11.3451 5.51609 12.9409 5.51609 12.9409L7.13621 10.8589L6.55549 13.5859L11.2774 13.5846L11.705 12.3579H12.0712L11.9468 13.5846H13.8568H14.1279H16.9104C17.2129 13.5846 17.515 13.4498 17.7513 13.2366L17.6778 13.5846H20.7316C21.2964 13.5846 21.8628 13.1173 21.995 12.5381L22.2755 11.2087C22.3453 10.8662 22.2761 10.5364 22.0859 10.3039C21.987 10.1833 21.8603 10.0953 21.7151 10.0446H22.3523L22.782 8.00631Z"
                  fill="#971B2F"
                />
                <path
                  d="M6.74278 1.55869L5.77926 6.12803H6.86107L6.41575 8.1989L7.38509 6.9472L7.70819 5.44437H6.62295L7.29836 2.24226H12.7726L11.6144 7.72395H12.3143L13.617 1.55859H6.7427L6.74278 1.55869ZM14.629 1.55869L13.3263 7.72405H14.0261L15.1842 2.24236H20.6104L19.959 5.44446H18.9223L18.4338 7.72414H19.134L19.476 6.12813H20.5188L21.4479 1.55878H14.6289L14.629 1.55869ZM2.86611 6.62352L2.57705 8.01529H3.0417L2.2054 11.9222L1.76623 11.9233L1.46191 13.3037H3.6922L4.4461 9.79879C4.80742 10.6543 5.19969 11.541 5.58172 12.3965L7.66763 9.71625L6.9035 13.3037H9.09959L9.40168 11.9222H8.95078L9.77277 8.01726L10.2077 8.0154L10.4967 6.62364H8.34902L6.12892 9.48942L5.0655 6.62364H2.86607L2.86611 6.62352ZM11.5508 8.28695L9.99573 12.262H9.61478L9.39696 13.3023H11.0767L11.5043 12.0755H12.383L12.2586 13.3023H13.8993L14.1247 12.2465H13.775L13.8371 8.28686H11.5509L11.5508 8.28695ZM16.1092 8.28714C15.6348 8.28714 15.1061 8.5977 15.005 9.07123L14.7561 10.259C14.6473 10.7559 14.8961 11.2218 15.4015 11.2218H16.7624L16.5368 12.2465H15.7669L15.8759 11.7575H14.5306L14.204 13.3023H16.9101C17.3456 13.3023 17.7966 12.9218 17.8976 12.4792L18.1776 11.1517C18.2708 10.6936 18.0453 10.2746 17.5866 10.2746H16.1636L16.3656 9.31965H17.1666L17.0734 9.76202H18.302L18.613 8.28705H16.1091L16.1092 8.28714ZM19.9335 8.28714C19.4593 8.28714 18.9306 8.5977 18.8294 9.07123L18.5807 10.259C18.4718 10.7559 18.7206 11.2218 19.2259 11.2218H20.5868L20.3613 12.2465H19.5914L19.7003 11.7575H18.355L18.0284 13.3023H20.7343C21.1699 13.3023 21.6211 12.9218 21.722 12.4792L22.0021 11.1517C22.0952 10.6936 21.8698 10.2746 21.411 10.2746H19.988L20.1902 9.31965H20.9912L20.8978 9.76202H22.1264L22.4374 8.28705H19.9335L19.9335 8.28714ZM12.5069 9.15661H12.5536L12.4526 11.1828H11.7917L12.5069 9.15651L12.5069 9.15661ZM6.18173 12.5427L5.44922 13.4837L5.33427 13.2263L4.98772 14.8387C4.77558 15.8494 4.97852 16.8282 5.54483 17.5243C6.04602 18.1402 6.78835 18.4796 7.6354 18.4796H13.7607C15.5599 18.4796 17.2222 16.6101 17.5894 14.9295L17.8174 13.8654H17.3292L17.344 13.7952C17.2709 13.8188 17.1963 13.8366 17.1208 13.8485L16.9199 14.7865C16.6304 16.1107 15.256 17.796 13.7607 17.796H7.63536C6.14012 17.796 5.34441 16.4717 5.65783 14.9789L6.18164 12.5427L6.18173 12.5427ZM10.3162 13.8653L10.1674 14.5696H12.579L12.7278 13.8653H10.3162Z"
                  fill="white"
                />
                <path
                  d="M5.06549 6.62409L4.36758 7.32687H4.07964L2.94183 12.6201H2.2679L1.46191 13.3043H3.6922L4.4461 9.79932L4.37096 7.34677L5.84105 10.9953L5.58175 12.3972L7.66765 9.71697L9.02679 7.34667L7.92241 12.5823L6.90346 13.3042H9.09546L9.39773 11.9227H8.95074L9.78165 8.01691L10.2073 8.01598L10.4965 6.62402L9.68549 7.32621H8.67825L5.86558 10.9496L6.12882 9.49008L5.06539 6.6241L5.06549 6.62409ZM18.6131 8.28676L17.8549 8.7932H16.2415C16.0042 8.7932 15.7397 8.94848 15.6892 9.18524L15.5972 9.62464C15.5972 9.62464 15.5047 10.0724 15.4651 10.2564C15.4254 10.4403 15.479 10.5475 15.5094 10.5963L14.8421 10.9165C14.9531 11.1007 15.1441 11.2216 15.4015 11.2216H16.7623L17.4165 10.9061C17.4491 10.9735 17.4724 11.0712 17.4398 11.2157L17.2093 12.2863C17.1493 12.563 16.9998 12.7703 16.6522 12.7703H14.9781L14.2042 13.3022H16.9105C17.3459 13.3022 17.797 12.9218 17.8981 12.4793L18.178 11.1516C18.222 10.9349 18.195 10.7268 18.1055 10.5677L17.4146 10.9035C17.3632 10.7894 17.2583 10.7429 17.1114 10.7429C17.1114 10.7429 16.0109 10.7404 15.822 10.7404C15.6332 10.7404 15.5819 10.6917 15.5097 10.5939L16.1639 10.2743L16.3661 9.31916H17.167L17.0736 9.7619H18.3024L18.6134 8.28655L18.6131 8.28676ZM22.4375 8.28676L21.6793 8.7932H20.0659C19.8287 8.7932 19.5642 8.94848 19.5136 9.18524L19.4217 9.62464C19.4217 9.62464 19.3291 10.0724 19.2895 10.2564C19.2497 10.4403 19.3034 10.5475 19.3337 10.5963L18.6667 10.9165C18.7776 11.1007 18.9683 11.2216 19.2258 11.2216H20.5867L21.2409 10.9061C21.2736 10.9735 21.297 11.0712 21.2643 11.2157L21.0335 12.2863C20.9728 12.5633 20.8237 12.7705 20.4762 12.7705H18.8021L18.0283 13.3024H20.7346C21.1701 13.3024 21.6211 12.922 21.7221 12.4795L22.0021 11.1518C22.0461 10.9351 22.0191 10.7269 21.9297 10.5679L21.2387 10.9037C21.1872 10.7896 21.0826 10.743 20.9356 10.743C20.9356 10.743 19.835 10.7406 19.646 10.7406C19.4573 10.7406 19.406 10.6919 19.3337 10.5941L19.9881 10.2745L20.1901 9.31933H20.9911L20.8979 9.76207H22.1265L22.4375 8.28672L22.4375 8.28676ZM13.8363 8.28769L13.2045 8.80509H11.987L10.5159 12.7803H10.0159L9.3961 13.3031H11.0758L11.5036 12.0765H12.3824L13.0862 11.6447L13.0306 12.7875L12.2579 13.3032H13.8988L14.1242 12.2474H13.7743L13.8365 8.28771L13.8363 8.28769ZM13.1972 8.82292L13.0813 11.6298H10.958L11.7913 11.1836L12.5066 9.1573H12.5531L13.197 8.82301L13.1972 8.82292Z"
                  fill="#B1B3B3"
                />
              </svg>